<?xml version="1.0" standalone="no"?>
<!DOCTYPE svg PUBLIC "-//W3C//DTD SVG 20010904//EN"
 "http://www.w3.org/TR/2001/REC-SVG-20010904/DTD/svg10.dtd">
<svg version="1.0" xmlns="http://www.w3.org/2000/svg"
 width="1182.000000pt" height="1182.000000pt" viewBox="0 0 1182.000000 1182.000000"
 preserveAspectRatio="xMidYMid meet">
<metadata>
Created by potrace 1.14, written by Peter Selinger 2001-2017
</metadata>
<g transform="translate(0.000000,1182.000000) scale(0.100000,-0.100000)"
fill="#000000" stroke="none">
<path d="M5697 11814 c-1 -1 -58 -4 -127 -8 -69 -3 -145 -8 -170 -11 -25 -2
-70 -7 -100 -11 -30 -3 -73 -7 -96 -9 -22 -2 -54 -6 -70 -9 -16 -3 -49 -8 -74
-11 -95 -13 -246 -40 -340 -60 -41 -9 -86 -18 -100 -21 -137 -26 -601 -160
-705 -203 -11 -5 -76 -30 -145 -56 -69 -27 -147 -59 -174 -72 -28 -12 -53 -23
-57 -23 -15 0 -335 -159 -469 -232 -267 -147 -568 -345 -785 -517 -22 -18 -56
-44 -75 -59 -35 -27 -78 -64 -185 -156 -169 -146 -431 -408 -566 -567 -11 -13
-30 -35 -43 -49 -103 -114 -363 -466 -476 -645 -35 -55 -73 -116 -85 -135 -67
-104 -315 -572 -315 -594 0 -2 -13 -33 -29 -68 -56 -121 -142 -343 -196 -506
-50 -150 -130 -422 -141 -482 -3 -14 -11 -52 -19 -85 -18 -80 -34 -154 -40
-185 -3 -14 -7 -36 -10 -50 -2 -14 -7 -40 -10 -57 -3 -18 -7 -48 -10 -65 -3
-18 -7 -44 -10 -58 -2 -14 -7 -45 -10 -70 -3 -25 -8 -56 -10 -70 -2 -14 -7
-54 -10 -90 -4 -36 -8 -76 -10 -90 -4 -27 -15 -185 -21 -290 -9 -187 -3 -572
12 -740 3 -41 6 -82 6 -90 0 -15 42 -351 54 -425 5 -32 35 -191 60 -310 2 -11
6 -29 8 -41 13 -63 79 -312 87 -326 5 -10 9 -24 9 -31 0 -25 117 -363 184
-532 37 -93 117 -269 177 -390 108 -218 120 -242 227 -424 52 -89 268 -420
282 -431 3 -3 17 -21 30 -40 74 -108 329 -415 460 -554 81 -86 81 -86 89 -86
7 0 231 228 636 645 89 92 485 498 692 711 100 103 538 552 789 811 186 190
615 630 704 722 l85 86 125 1 c104 0 133 4 177 22 39 16 54 18 61 9 8 -9 -31
-55 -141 -168 -150 -155 -569 -585 -769 -790 -167 -171 -648 -667 -739 -760
-160 -165 -588 -605 -716 -735 -70 -72 -247 -254 -393 -404 -146 -150 -279
-287 -296 -303 l-31 -31 36 -34 c309 -291 758 -614 1166 -837 80 -43 341 -175
348 -175 3 0 43 -17 89 -39 162 -75 442 -180 683 -254 89 -28 296 -84 335 -90
14 -3 43 -10 65 -15 22 -6 56 -14 75 -17 19 -3 42 -8 50 -10 8 -2 29 -7 45
-10 17 -2 41 -7 55 -10 58 -11 77 -15 115 -20 22 -3 67 -10 100 -15 158 -25
301 -40 533 -56 192 -13 628 -7 817 11 129 12 173 17 195 20 14 2 50 6 80 9
30 4 66 8 79 11 14 2 47 7 74 10 60 7 341 61 417 80 30 8 93 23 140 35 600
150 1219 422 1750 769 91 60 276 188 335 233 466 356 880 776 1209 1227 352
483 618 985 809 1526 45 127 126 392 142 461 2 11 18 73 34 139 25 101 51 228
76 370 2 17 7 39 9 50 8 43 35 251 42 335 3 36 8 76 10 90 24 151 24 918 0
1047 -2 10 -7 54 -10 98 -4 44 -9 87 -11 95 -2 8 -6 40 -10 70 -3 30 -7 66
-10 80 -2 14 -6 43 -10 65 -12 85 -48 266 -77 390 -16 72 -31 137 -33 145 -2
8 -22 80 -45 159 -213 746 -579 1454 -1069 2066 -31 39 -58 72 -61 75 -3 3
-30 34 -60 70 -64 76 -120 138 -213 234 l-67 71 -173 -176 c-165 -170 -615
-632 -787 -809 -45 -47 -159 -164 -254 -261 -299 -307 -771 -791 -852 -875
-44 -45 -149 -154 -235 -242 l-155 -159 -60 70 c-32 38 -63 75 -69 81 -42 47
-46 38 92 179 72 73 156 159 188 192 32 33 191 197 354 364 163 167 330 338
371 381 41 42 194 199 340 349 146 150 308 316 360 370 52 54 228 234 390 400
162 167 296 306 298 310 9 24 -354 326 -603 502 -593 419 -1248 723 -1940 899
-196 50 -245 61 -405 90 -30 6 -65 12 -76 14 -65 13 -292 43 -379 51 -38 3
-83 8 -100 10 -97 13 -716 29 -728 19z m1793 -4449 c0 -5 -84 -96 -188 -202
l-187 -191 -153 21 c-84 12 -151 25 -150 28 2 4 119 127 261 273 l259 265 79
-92 c43 -51 78 -96 79 -102z m-750 -580 c9 -2 43 -6 75 -10 79 -9 101 -15 86
-25 -7 -4 -25 -6 -39 -4 -15 2 -54 6 -87 9 -33 3 -76 8 -96 11 -20 2 -52 5
-72 6 -30 1 -35 4 -25 15 10 13 84 12 158 -2z m-210 -241 c36 -4 85 -9 108
-13 l44 -6 -99 -102 c-54 -56 -217 -224 -363 -373 -146 -150 -301 -309 -345
-355 -84 -87 -579 -595 -677 -695 -32 -32 -58 -55 -58 -51 0 5 7 28 15 52 22
61 17 156 -11 226 l-24 58 44 45 c24 25 118 122 209 215 91 94 204 211 252
260 48 50 216 222 374 384 157 162 302 312 321 333 39 41 28 40 210 22z"/>
</g>
</svg>
